<svg width="1656" height="1001" viewBox="0 0 1656 1001" fill="none" xmlns="http://www.w3.org/2000/svg">
<rect width="1656" height="1001" fill="white"/>
<rect width="1656" height="1001" fill="#EA701B"/>
<path fill-rule="evenodd" clip-rule="evenodd" d="M742.621 362.055H721.705V337.352L814.29 282.84V207L677 286.059V494H814.29V442.524H742.621V362.055Z" fill="white"/>
<path fill-rule="evenodd" clip-rule="evenodd" d="M842.736 207V282.84L935.313 337.352V362.055H914.379V442.524H842.736V494H980V286.059L842.736 207Z" fill="white"/>
<path d="M336.083 630.44C356.003 630.44 366.443 619.28 371.603 608.96L353.843 600.56C351.203 606.92 344.363 612.2 336.083 612.2C323.603 612.2 314.363 602.12 314.363 589.04C314.363 575.96 323.603 565.88 336.083 565.88C344.363 565.88 351.203 571.16 353.843 577.52L371.603 569.12C366.323 558.56 356.003 547.64 336.083 547.64C312.083 547.64 293.363 564.32 293.363 589.04C293.363 613.64 312.083 630.44 336.083 630.44ZM408.525 630.44C428.445 630.44 440.205 616.28 440.205 599.96C440.205 583.64 428.445 569.6 408.525 569.6C388.845 569.6 376.965 583.64 376.965 599.96C376.965 616.28 388.845 630.44 408.525 630.44ZM408.525 614.12C400.485 614.12 396.045 607.76 396.045 599.96C396.045 592.28 400.485 585.92 408.525 585.92C416.685 585.92 421.245 592.28 421.245 599.96C421.245 607.76 416.685 614.12 408.525 614.12ZM542.142 629V587C542.142 575.12 535.422 569.6 524.742 569.6C515.622 569.6 508.062 574.88 504.702 579.92C502.302 573.08 496.542 569.6 488.262 569.6C479.142 569.6 471.702 574.76 469.182 578.12V571.04H450.702V629H469.182V591.56C471.102 589.16 474.582 585.92 479.502 585.92C485.142 585.92 487.182 589.28 487.182 593.72V629H505.662V591.56C507.462 589.16 511.062 585.92 516.102 585.92C521.622 585.92 523.782 589.28 523.782 593.72V629H542.142ZM574.938 622.16C579.738 627.92 585.618 630.44 592.098 630.44C606.618 630.44 617.538 619.64 617.538 599.96C617.538 580.4 606.618 569.6 592.098 569.6C585.498 569.6 579.498 572.24 574.938 577.76V571.04H556.458V651.08H574.938V622.16ZM598.698 599.96C598.698 608.72 593.178 614.12 585.978 614.12C582.018 614.12 577.218 611.84 574.938 608.84V591.2C577.218 588.08 582.018 585.92 585.978 585.92C593.178 585.92 598.698 591.32 598.698 599.96ZM655.716 630.44C675.636 630.44 687.396 616.28 687.396 599.96C687.396 583.64 675.636 569.6 655.716 569.6C636.036 569.6 624.156 583.64 624.156 599.96C624.156 616.28 636.036 630.44 655.716 630.44ZM655.716 614.12C647.676 614.12 643.236 607.76 643.236 599.96C643.236 592.28 647.676 585.92 655.716 585.92C663.876 585.92 668.436 592.28 668.436 599.96C668.436 607.76 663.876 614.12 655.716 614.12ZM755.613 629V587.96C755.613 577.28 749.613 569.6 736.413 569.6C726.693 569.6 719.853 574.04 716.373 578.12V571.04H697.893V629H716.373V591.56C718.533 588.92 722.133 585.92 727.653 585.92C733.413 585.92 737.133 588.44 737.133 595.52V629H755.613ZM765.942 599.96C765.942 618.8 779.742 630.44 797.622 630.44C806.502 630.44 816.102 627.92 821.862 622.76L814.062 611.24C810.822 614.12 805.062 616.16 799.902 616.16C791.262 616.16 786.222 611.24 785.142 605.84H826.422V601.88C826.422 582.2 813.942 569.6 796.782 569.6C778.662 569.6 765.942 583.16 765.942 599.96ZM796.782 583.88C805.302 583.88 808.302 589.76 808.782 593.84H784.902C785.622 589.64 788.742 583.88 796.782 583.88ZM894 629V587.96C894 577.28 888 569.6 874.8 569.6C865.08 569.6 858.24 574.04 854.76 578.12V571.04H836.28V629H854.76V591.56C856.92 588.92 860.52 585.92 866.04 585.92C871.8 585.92 875.52 588.44 875.52 595.52V629H894ZM930.129 630.44C936.969 630.44 941.529 628.76 943.809 626.6L940.209 612.68C939.609 613.4 937.569 614.12 935.529 614.12C932.289 614.12 930.369 611.6 930.369 608.24V587.12H942.129V571.04H930.369V555.2H912.009V571.04H902.409V587.12H912.009V613.4C912.009 624.56 918.369 630.44 930.129 630.44ZM1036.91 629V611H1004.75V548.96H984.107V629H1036.91ZM1057.14 563.72C1063.02 563.72 1067.7 559.04 1067.7 553.16C1067.7 547.28 1063.02 542.6 1057.14 542.6C1051.26 542.6 1046.58 547.28 1046.58 553.16C1046.58 559.04 1051.26 563.72 1057.14 563.72ZM1066.38 629V571.04H1047.9V629H1066.38ZM1099.01 629V622.28C1103.81 627.8 1109.69 630.44 1116.17 630.44C1130.45 630.44 1141.73 619.64 1141.73 599.96C1141.73 581 1130.57 569.6 1116.17 569.6C1109.81 569.6 1103.57 572.12 1099.01 577.88V548.96H1080.53V629H1099.01ZM1099.01 591.2C1101.29 588.08 1106.09 585.92 1110.05 585.92C1117.37 585.92 1122.89 591.32 1122.89 599.96C1122.89 608.72 1117.37 614.12 1110.05 614.12C1106.09 614.12 1101.29 612.08 1099.01 608.96V591.2ZM1170.67 629V592.28C1173.07 588.92 1179.43 586.88 1184.23 586.88C1186.15 586.88 1187.71 587.12 1188.79 587.48V569.6C1181.83 569.6 1174.51 573.68 1170.67 578.36V571.04H1152.19V629H1170.67ZM1250.62 629V592.76C1250.62 574.76 1237.54 569.6 1223.62 569.6C1214.74 569.6 1204.78 572.24 1197.34 578.6L1203.94 590.24C1208.62 586.28 1214.62 584.12 1220.38 584.12C1227.82 584.12 1232.14 587.48 1232.14 592.52V599.84C1228.66 595.52 1221.82 593.12 1214.14 593.12C1205.26 593.12 1194.22 597.32 1194.22 611.36C1194.22 624.44 1205.26 630.44 1214.14 630.44C1221.58 630.44 1228.54 627.56 1232.14 623.24V629H1250.62ZM1232.14 614.12C1230.22 616.88 1225.9 618.32 1221.82 618.32C1216.9 618.32 1212.58 616.16 1212.58 611.6C1212.58 607.04 1216.9 604.88 1221.82 604.88C1225.9 604.88 1230.22 606.32 1232.14 608.96V614.12ZM1283.27 629V592.28C1285.67 588.92 1292.03 586.88 1296.83 586.88C1298.75 586.88 1300.31 587.12 1301.39 587.48V569.6C1294.43 569.6 1287.11 573.68 1283.27 578.36V571.04H1264.79V629H1283.27ZM1309.35 651.56C1311.27 652.16 1315.59 652.52 1317.27 652.52C1328.31 652.28 1337.07 649.52 1341.75 637.28L1367.91 571.04H1348.35L1335.15 607.76L1322.07 571.04H1302.63L1325.67 629.84L1324.35 632.96C1323.39 635.36 1320.75 636.2 1316.55 636.2C1315.11 636.2 1313.31 635.84 1311.99 635.12L1309.35 651.56ZM521.378 745L551.618 664.96H528.218L508.418 722.68L488.738 664.96H465.338L495.458 745H521.378ZM546.817 715.96C546.817 734.8 560.617 746.44 578.497 746.44C587.377 746.44 596.977 743.92 602.737 738.76L594.937 727.24C591.697 730.12 585.937 732.16 580.777 732.16C572.137 732.16 567.097 727.24 566.017 721.84H607.297V717.88C607.297 698.2 594.817 685.6 577.657 685.6C559.537 685.6 546.817 699.16 546.817 715.96ZM577.657 699.88C586.177 699.88 589.177 705.76 589.657 709.84H565.777C566.497 705.64 569.617 699.88 577.657 699.88ZM635.636 745V708.28C638.036 704.92 644.396 702.88 649.196 702.88C651.116 702.88 652.676 703.12 653.756 703.48V685.6C646.796 685.6 639.476 689.68 635.636 694.36V687.04H617.156V745H635.636ZM657.992 737.56C664.112 742.96 674.792 746.44 685.112 746.44C701.792 746.44 711.512 738.28 711.512 727.24C711.512 711.88 696.872 709.48 687.032 707.8C680.912 706.72 677.792 705.76 677.792 703.12C677.792 700.6 680.792 699.16 685.112 699.16C692.072 699.16 698.672 702.16 702.152 705.52L709.232 693.28C702.992 688.72 694.712 685.6 684.992 685.6C668.912 685.6 660.152 694.48 660.152 704.68C660.152 719.44 674.072 721.48 683.912 723.16C689.912 724.12 693.872 725.2 693.872 728.2C693.872 730.72 691.592 732.52 686.072 732.52C679.232 732.52 669.992 728.68 665.672 724.84L657.992 737.56ZM731.033 679.72C736.913 679.72 741.593 675.04 741.593 669.16C741.593 663.28 736.913 658.6 731.033 658.6C725.153 658.6 720.473 663.28 720.473 669.16C720.473 675.04 725.153 679.72 731.033 679.72ZM740.273 745V687.04H721.793V745H740.273ZM782.145 746.44C802.065 746.44 813.825 732.28 813.825 715.96C813.825 699.64 802.065 685.6 782.145 685.6C762.465 685.6 750.585 699.64 750.585 715.96C750.585 732.28 762.465 746.44 782.145 746.44ZM782.145 730.12C774.105 730.12 769.665 723.76 769.665 715.96C769.665 708.28 774.105 701.92 782.145 701.92C790.305 701.92 794.865 708.28 794.865 715.96C794.865 723.76 790.305 730.12 782.145 730.12ZM882.042 745V703.96C882.042 693.28 876.042 685.6 862.842 685.6C853.122 685.6 846.282 690.04 842.802 694.12V687.04H824.322V745H842.802V707.56C844.962 704.92 848.562 701.92 854.082 701.92C859.842 701.92 863.562 704.44 863.562 711.52V745H882.042ZM967.39 745V664.96H949.51L921.55 692.56L933.31 704.92L946.75 691.36V745H967.39ZM980.178 735.16C980.178 741.28 985.338 746.44 991.458 746.44C997.578 746.44 1002.74 741.28 1002.74 735.16C1002.74 729.04 997.578 723.88 991.458 723.88C985.338 723.88 980.178 729.04 980.178 735.16ZM1011.6 705.04C1011.6 726.16 1022.52 746.44 1045.92 746.44C1069.32 746.44 1080.24 726.16 1080.24 705.04C1080.24 683.92 1069.32 663.76 1045.92 663.76C1022.52 663.76 1011.6 683.92 1011.6 705.04ZM1059.36 705.04C1059.36 719.2 1055.52 728.2 1045.92 728.2C1036.32 728.2 1032.48 719.2 1032.48 705.04C1032.48 690.88 1036.32 682 1045.92 682C1055.52 682 1059.36 690.88 1059.36 705.04ZM1087.16 735.16C1087.16 741.28 1092.32 746.44 1098.44 746.44C1104.56 746.44 1109.72 741.28 1109.72 735.16C1109.72 729.04 1104.56 723.88 1098.44 723.88C1092.32 723.88 1087.16 729.04 1087.16 735.16ZM1118.58 705.04C1118.58 726.16 1129.5 746.44 1152.9 746.44C1176.3 746.44 1187.22 726.16 1187.22 705.04C1187.22 683.92 1176.3 663.76 1152.9 663.76C1129.5 663.76 1118.58 683.92 1118.58 705.04ZM1166.34 705.04C1166.34 719.2 1162.5 728.2 1152.9 728.2C1143.3 728.2 1139.46 719.2 1139.46 705.04C1139.46 690.88 1143.3 682 1152.9 682C1162.5 682 1166.34 690.88 1166.34 705.04Z" fill="white"/>
</svg>
